<?xml version="1.0" encoding="UTF-8"?><svg id="Layer_2" xmlns="http://www.w3.org/2000/svg" viewBox="0 0 455.24 254.31"><defs><style>.cls-1{letter-spacing:0em;}.cls-2{fill:#fff200;}.cls-3{fill:#ff3;}.cls-4{fill:#fff799;}.cls-5{fill:red;}.cls-6{fill:#ff931e;}.cls-7{font-family:BebasNeue-Regular, 'Bebas Neue';font-size:129px;}.cls-8{fill:aqua;stroke:#f7931e;stroke-miterlimit:10;stroke-width:6px;}</style></defs><g id="Layer_1-2"><rect class="cls-8" x="3" y="3" width="449.24" height="243.7"/><path class="cls-4" d="m408.76,71.05c-23.31,22.95-58.34,40.9-100.08,50.97h0c-26.84,6.48-56.46,9.7-87.52,8.89-22.25-.58-43.65-3.17-63.74-7.5h0c-44.49-9.56-82.5-27.55-108.87-50.64-.69-.6-1.37-1.22-2.04-1.83C84.79,34.51,152.44,10.57,229.32,11.11c74.06.51,139.22,23.61,177.71,58.35.59.53,1.16,1.06,1.73,1.6Z"/><path class="cls-2" d="m414.47,76.62c-.83,15.88-7.06,30.97-17.65,44.59-6.62,8.54-14.96,16.5-24.72,23.73-19.8,14.66-45.52,26.29-74.92,33.55,16.25,11.25,26.45,26.39,27.15,43.07-3.03,1.13-6.11,2.21-9.24,3.23-26.08,8.57-55.85,13.53-87.5,13.72-33.64.22-65.24-4.97-92.57-14.22-1.48-.5-2.96-1.01-4.42-1.54v-.26c.1-16.98,10.03-32.35,26.2-43.78-30.41-7.43-56.81-19.57-76.72-34.97-7.78-6.01-14.57-12.52-20.22-19.44-11.72-14.35-18.54-30.46-19.11-47.53,1.24-1.35,2.54-2.67,3.86-3.99l3.97-.03c26.37,23.09,64.38,41.08,108.87,50.64h0c20.09,4.32,41.5,6.92,63.74,7.5,31.05.8,60.67-2.42,87.52-8.89h0c41.74-10.07,76.78-28.02,100.08-50.97,1.96,1.82,3.84,3.67,5.64,5.56Z"/><path class="cls-3" d="m229.83,224.31h-4.38c-.03-.52-.03-1.02-.03-1.54,1.46.53,2.93,1.04,4.42,1.54Z"/><path class="cls-3" d="m232.26,223.66c0,.4-.02.78-.03,1.16l-9.26-.03c3.13-1.03,6.21-2.1,9.24-3.23.03.7.04,1.4.04,2.1Z"/><text class="cls-7" transform="translate(11.66 117.51)"><tspan class="cls-5"><tspan x="0" y="0">Bountiful</tspan></tspan><tspan class="cls-6"><tspan x="0" y="111" xml:space="preserve">    fr</tspan><tspan class="cls-1" x="178.92" y="111">e</tspan><tspan x="226" y="111">sh</tspan></tspan></text></g></svg>