<svg id="Icon_simple-instagram" data-name="Icon simple-instagram" xmlns="http://www.w3.org/2000/svg" width="43.907" height="43.912" viewBox="0 0 43.907 43.912">
  <path id="Icon_simple-instagram-2" data-name="Icon simple-instagram" d="M21.955,0C15.99,0,15.245.028,12.9.132a16.188,16.188,0,0,0-5.33,1.021A10.751,10.751,0,0,0,3.685,3.685a10.713,10.713,0,0,0-2.532,3.89A16.143,16.143,0,0,0,.132,12.9C.022,15.246,0,15.991,0,21.956s.028,6.709.132,9.051a16.2,16.2,0,0,0,1.021,5.33,10.767,10.767,0,0,0,2.532,3.89,10.736,10.736,0,0,0,3.89,2.532A16.208,16.208,0,0,0,12.9,43.78c2.341.11,3.086.132,9.051.132s6.709-.028,9.051-.132a16.246,16.246,0,0,0,5.329-1.023,11.22,11.22,0,0,0,6.42-6.42,16.2,16.2,0,0,0,1.021-5.33c.11-2.341.132-3.087.132-9.051s-.028-6.709-.132-9.051a16.238,16.238,0,0,0-1.021-5.33,10.776,10.776,0,0,0-2.53-3.89,10.7,10.7,0,0,0-3.89-2.532A16.15,16.15,0,0,0,31.005.132C28.663.022,27.919,0,21.955,0Zm0,3.952c5.86,0,6.559.029,8.871.13a12.1,12.1,0,0,1,4.074.759,7.225,7.225,0,0,1,4.17,4.166,12.123,12.123,0,0,1,.756,4.074c.1,2.317.128,3.011.128,8.872s-.028,6.559-.136,8.872a12.357,12.357,0,0,1-.77,4.074,6.971,6.971,0,0,1-1.643,2.528,6.849,6.849,0,0,1-2.525,1.639,12.21,12.21,0,0,1-4.089.756c-2.331.1-3.017.128-8.89.128s-6.561-.028-8.89-.136a12.448,12.448,0,0,1-4.091-.77A6.8,6.8,0,0,1,6.4,37.4a6.667,6.667,0,0,1-1.647-2.525,12.461,12.461,0,0,1-.768-4.089c-.082-2.305-.112-3.017-.112-8.863s.029-6.561.112-8.894a12.446,12.446,0,0,1,.768-4.088A6.508,6.508,0,0,1,6.4,6.418,6.494,6.494,0,0,1,8.921,4.775a12.15,12.15,0,0,1,4.061-.768c2.333-.082,3.019-.11,8.89-.11l.082.055Zm0,6.729A11.274,11.274,0,1,0,33.228,21.956,11.274,11.274,0,0,0,21.955,10.681Zm0,18.593a7.319,7.319,0,1,1,7.318-7.319,7.319,7.319,0,0,1-7.318,7.319ZM36.309,10.237A2.635,2.635,0,1,1,33.674,7.6a2.635,2.635,0,0,1,2.635,2.633Z" transform="translate(0 0)" fill="#fff"/>
</svg>
