<?xml version="1.0" encoding="UTF-8"?><svg id="Layer_2" xmlns="http://www.w3.org/2000/svg" viewBox="0 0 1541.7 448.91"><defs><style>.cls-1{fill:none;stroke:#000;stroke-miterlimit:10;stroke-width:3px;}.cls-2{letter-spacing:0em;}.cls-3{letter-spacing:-.03em;}.cls-4{font-family:NHaasGroteskDSPro-25Th, 'Neue Haas Grotesk Display Pro';font-size:60px;}.cls-5{letter-spacing:-.03em;}.cls-6{letter-spacing:-.02em;}.cls-7{letter-spacing:0em;}.cls-8{letter-spacing:-.02em;}.cls-9{letter-spacing:-.01em;}.cls-10{letter-spacing:0em;}</style></defs><g id="Layer_1-2"><text class="cls-4" transform="translate(749.71 51.45)"><tspan x="0" y="0">Bl</tspan><tspan class="cls-10" x="45" y="0">a</tspan><tspan x="73.8" y="0">c</tspan><tspan class="cls-10" x="103.26" y="0">k</tspan><tspan class="cls-3" x="129.66" y="0">f</tspan><tspan class="cls-2" x="143.1" y="0">o</tspan><tspan class="cls-8" x="174.42" y="0">o</tspan><tspan x="204.84" y="0">t Chamber </tspan><tspan x="87.9" y="72">Home </tspan><tspan class="cls-5" x="244.25" y="72">P</tspan><tspan class="cls-10" x="276.77" y="72">a</tspan><tspan x="305.57" y="72">ge</tspan></text><rect class="cls-1" x="785.95" y="310.75" width="372.62" height="136.65"/><rect class="cls-1" x="709.81" y="5.05" width="524.91" height="152.75"/><text class="cls-4" transform="translate(933.08 359.91)"><tspan x="0" y="0">join</tspan><tspan class="cls-6" x="-22.47" y="72">P</tspan><tspan class="cls-10" x="10.05" y="72">a</tspan><tspan x="38.85" y="72">ge</tspan></text><rect class="cls-1" x="1167.59" y="310.75" width="372.62" height="136.65"/><text class="cls-4" transform="translate(1264.07 359.91)"><tspan x="0" y="0">co</tspan><tspan class="cls-10" x="60.78" y="0">n</tspan><tspan class="cls-7" x="89.1" y="0">t</tspan><tspan class="cls-10" x="104.7" y="0">a</tspan><tspan x="133.5" y="0">ct</tspan><tspan class="cls-6" x="28.17" y="72">P</tspan><tspan class="cls-10" x="60.69" y="72">a</tspan><tspan x="89.49" y="72">ge</tspan></text><rect class="cls-1" x="377.77" y="310.75" width="398.49" height="136.65"/><text class="cls-4" transform="translate(486.58 359.91)"><tspan x="0" y="0">disc</tspan><tspan class="cls-9" x="95.82" y="0">ov</tspan><tspan x="151.38" y="0">er</tspan><tspan class="cls-6" x="38.22" y="72">P</tspan><tspan class="cls-10" x="70.74" y="72">a</tspan><tspan x="99.54" y="72">ge</tspan></text><rect class="cls-1" x="1.5" y="310.75" width="356.81" height="136.65"/><text class="cls-4" transform="translate(60.28 359.91)"><tspan x="0" y="0">chamber</tspan><tspan x="-32.19" y="72">Home </tspan><tspan class="cls-7" x="124.17" y="72">p</tspan><tspan class="cls-10" x="155.25" y="72">a</tspan><tspan x="184.05" y="72">ge</tspan></text><line class="cls-1" x1="931.58" y1="154.2" x2="930.62" y2="203.97"/><line class="cls-1" x1="531.36" y1="203.98" x2="1341.4" y2="203.98"/><line class="cls-1" x1="930.62" y1="203.97" x2="930.62" y2="310.75"/><line class="cls-1" x1="531.36" y1="203.97" x2="531.36" y2="310.75"/><line class="cls-1" x1="202.61" y1="72.12" x2="202.61" y2="310.75"/><line class="cls-1" x1="1341.4" y1="203.97" x2="1341.4" y2="310.75"/><line class="cls-1" x1="708.41" y1="72.12" x2="202.61" y2="72.12"/></g></svg>