<?xml version="1.0" encoding="UTF-8"?><svg id="Layer_1" xmlns="http://www.w3.org/2000/svg" viewBox="0 0 150 150"><defs><style>.cls-1{stroke:#000;stroke-width:3px;}.cls-1,.cls-2,.cls-3{fill:none;stroke-miterlimit:10;}.cls-2{stroke:#7ab8bf;}.cls-2,.cls-3{stroke-width:4px;}.cls-3{stroke:#a67458;}</style></defs><rect class="cls-1" x="45.89" y="4.82" width="59.15" height="100.99" transform="translate(130.78 -20.15) rotate(90)"/><rect class="cls-3" x="18.88" y="20.74" width="97.91" height="112.02"/><rect class="cls-2" x="70.59" y="16.24" width="60.53" height="73.54"/><path d="m67.29,67.19c0,2.8-.86,5.21-2.57,7.22-1.71,2.01-4.08,3.35-7.1,4.03-2.39.54-4.64.86-6.76.95-2.12.09-8.33.13-18.65.13-1.44,0-2.3-.02-2.57-.07-.27-.04-.41-.2-.41-.47,0-.41.73-.61,2.2-.61s2.38-.21,2.74-.64c.36-.43.54-1.48.54-3.15v-38.71c0-1.31-1.05-1.98-3.15-2.03-1.6-.04-2.4-.23-2.4-.57,0-.38.5-.57,1.49-.57h18.99c10.41,0,15.61,3.57,15.61,10.71,0,5.92-3.88,9.58-11.62,10.98l-.14.27c4.55.95,7.7,2.15,9.46,3.59,2.88,2.39,4.32,5.38,4.32,8.95Zm-10.81-.3c0-6.35-1.8-10.05-5.41-11.08-1.43-.41-3.47-.61-6.15-.61v3.92c0,1.13-.05,2.73-.14,4.8-.05,1.04-.07,2.97-.07,5.81,0,4.87.14,7.46.41,7.77.36.5,1.37.74,3.04.74,5.54,0,8.31-3.78,8.31-11.35Zm-1.28-23.11c0-6.53-1.99-9.8-5.96-9.8-1.41,0-2.36.07-2.85.2-.97.32-1.46,1.01-1.46,2.09v17.84c3.93,0,6.63-.7,8.08-2.09,1.46-1.4,2.19-4.14,2.19-8.24Z"/><path d="m113.66,64.59l-.07,1.15c0,.23-.11,1.65-.34,4.26-.18,1.98-.27,3.51-.27,4.59,0,1.35.02,2.48.07,3.38.04.32.07.7.07,1.15,0,.5-.11.74-.34.74s-.47-.23-.74-.68c-.99-1.62-2.05-2.68-3.18-3.18-3.38,2.88-7.01,4.33-10.88,4.33-5.9,0-11.11-2.21-15.61-6.62-4.78-4.68-7.16-10.59-7.16-17.7s2.15-12.65,6.45-17.27c4.3-4.62,9.67-6.93,16.12-6.93,2.97,0,5.63.68,7.97,2.03,1.35.77,2.34,1.15,2.97,1.15.95,0,1.82-.43,2.64-1.28.58-.63.95-.95,1.08-.95.18,0,.27.16.27.47,0,.13-.02.34-.07.61-.27,1.53-.41,3.42-.41,5.68,0,.23.02,1.15.07,2.77v4.66c0,.81-.23,1.22-.68,1.22-.36,0-.72-.88-1.08-2.64-1.62-8.11-5.34-12.16-11.15-12.16-4.59,0-7.93,2.97-10,8.92-1.44,4.05-2.16,8.92-2.16,14.6,0,8.42,1.71,14.6,5.14,18.52,1.8,2.07,4.17,3.11,7.09,3.11,6.35,0,10.52-4.23,12.5-12.7.31-1.4.68-2.09,1.08-2.09.45,0,.65.29.61.88Z"/><path d="m85.67,111.08l-.07,1.15c0,.23-.11,1.65-.34,4.26-.18,1.98-.27,3.51-.27,4.59,0,1.35.02,2.48.07,3.38.04.32.07.7.07,1.15,0,.5-.11.74-.34.74s-.47-.23-.74-.68c-.99-1.62-2.05-2.68-3.18-3.18-3.38,2.88-7.01,4.33-10.88,4.33-5.9,0-11.11-2.21-15.61-6.62-4.78-4.68-7.16-10.59-7.16-17.7s2.15-12.65,6.45-17.27c4.3-4.62,9.67-6.93,16.12-6.93,2.97,0,5.63.68,7.97,2.03,1.35.77,2.34,1.15,2.97,1.15.95,0,1.83-.43,2.64-1.28.58-.63.95-.95,1.08-.95.18,0,.27.16.27.47,0,.13-.02.34-.07.61-.27,1.53-.41,3.42-.41,5.68,0,.23.02,1.15.07,2.77v4.66c0,.81-.23,1.22-.68,1.22-.36,0-.72-.88-1.08-2.64-1.62-8.11-5.34-12.16-11.15-12.16-4.6,0-7.93,2.97-10,8.92-1.44,4.05-2.16,8.92-2.16,14.6,0,8.42,1.71,14.6,5.14,18.52,1.8,2.07,4.17,3.11,7.1,3.11,6.35,0,10.52-4.23,12.5-12.7.31-1.4.68-2.09,1.08-2.09.45,0,.65.29.61.88Z"/><g><path d="m72.39,107c0,1.28-.5,2.32-1.51,3.11-.79.62-1.66.94-2.61.94-1.13,0-2.1-.41-2.92-1.22-.82-.81-1.23-1.77-1.23-2.87s.41-2.13,1.23-2.94c.82-.81,1.81-1.21,2.98-1.21s2.07.41,2.87,1.23c.8.82,1.2,1.81,1.2,2.96Zm-2.72.02c0-1.49-.1-2.51-.3-3.06-.23-.61-.59-.92-1.09-.92-.47,0-.83.32-1.09.96-.26.64-.39,1.53-.39,2.66,0,1.57.16,2.69.47,3.35.25.53.6.79,1.06.79.56,0,.93-.34,1.11-1.01.17-.64.25-1.56.25-2.77Z"/><path d="m80.85,99.87c0,.31-.1.57-.3.77-.2.2-.45.31-.77.31s-.57-.09-.77-.28c-.2-.19-.3-.42-.3-.69,0-.23.12-.54.36-.94.05-.06.07-.14.07-.25,0-.28-.17-.41-.52-.41-.28,0-.52.15-.72.45-.18.24-.31.52-.38.85-.07.32-.11.89-.11,1.71v1.64h1.28c.14,0,.22.05.22.14,0,.06-.04.1-.11.12-.11.03-.34.05-.7.05h-.68v6.34c0,.39.01.62.04.68.06.13.25.19.56.18h.52c.16,0,.23.05.23.16,0,.1-.08.14-.23.14-.07,0-.17,0-.29-.02-.36-.04-.82-.05-1.37-.05-.24,0-.73.01-1.48.04-.74.02-1.15.04-1.22.04h-.25c-.14,0-.22-.04-.22-.13,0-.1.2-.15.61-.16.32-.01.51-.05.57-.12.05-.07.08-.3.08-.7v-6.4h-.95c-.18,0-.27-.05-.27-.15,0-.08.04-.12.13-.14.08-.01.37-.02.85-.02h.25v-.38c0-.72.13-1.42.38-2.11.25-.68.58-1.21.99-1.58.59-.54,1.32-.81,2.2-.81.68,0,1.24.16,1.67.48.43.32.64.74.64,1.25Z"/></g></svg>