<?xml version="1.0" encoding="UTF-8"?><svg id="Layer_2" xmlns="http://www.w3.org/2000/svg" viewBox="0 0 152 152"><defs><style>.cls-1{stroke-width:2px;}.cls-1,.cls-2{fill:none;stroke:#000;stroke-miterlimit:10;}</style></defs><g id="Layer_1-2"><rect class="cls-2" x="46.89" y="5.82" width="59.15" height="100.99" transform="translate(132.78 -20.15) rotate(90)"/><rect class="cls-2" x="19.88" y="21.74" width="97.91" height="112.02"/><rect class="cls-2" x="71.59" y="17.24" width="60.53" height="73.54"/><path d="m68.29,68.19c0,2.8-.86,5.21-2.57,7.22-1.71,2.01-4.08,3.35-7.1,4.03-2.39.54-4.64.86-6.76.95-2.12.09-8.33.13-18.65.13-1.44,0-2.3-.02-2.57-.07-.27-.04-.41-.2-.41-.47,0-.41.73-.61,2.2-.61s2.38-.21,2.74-.64c.36-.43.54-1.48.54-3.15v-38.71c0-1.31-1.05-1.98-3.15-2.03-1.6-.04-2.4-.23-2.4-.57,0-.38.5-.57,1.49-.57h18.99c10.41,0,15.61,3.57,15.61,10.71,0,5.92-3.88,9.58-11.62,10.98l-.14.27c4.55.95,7.7,2.15,9.46,3.59,2.88,2.39,4.32,5.38,4.32,8.95Zm-10.81-.3c0-6.35-1.8-10.05-5.41-11.08-1.43-.41-3.47-.61-6.15-.61v3.92c0,1.13-.05,2.73-.14,4.8-.05,1.04-.07,2.97-.07,5.81,0,4.87.14,7.46.41,7.77.36.5,1.37.74,3.04.74,5.54,0,8.31-3.78,8.31-11.35Zm-1.28-23.11c0-6.53-1.99-9.8-5.96-9.8-1.41,0-2.36.07-2.85.2-.97.32-1.46,1.01-1.46,2.09v17.84c3.93,0,6.63-.7,8.08-2.09,1.46-1.4,2.19-4.14,2.19-8.24Z"/><path d="m114.66,65.59l-.07,1.15c0,.23-.11,1.65-.34,4.26-.18,1.98-.27,3.51-.27,4.59,0,1.35.02,2.48.07,3.38.04.32.07.7.07,1.15,0,.5-.11.74-.34.74s-.47-.23-.74-.68c-.99-1.62-2.05-2.68-3.18-3.18-3.38,2.88-7.01,4.33-10.88,4.33-5.9,0-11.11-2.21-15.61-6.62-4.78-4.68-7.16-10.59-7.16-17.7s2.15-12.65,6.45-17.27c4.3-4.62,9.67-6.93,16.12-6.93,2.97,0,5.63.68,7.97,2.03,1.35.77,2.34,1.15,2.97,1.15.95,0,1.82-.43,2.64-1.28.58-.63.95-.95,1.08-.95.18,0,.27.16.27.47,0,.13-.02.34-.07.61-.27,1.53-.41,3.42-.41,5.68,0,.23.02,1.15.07,2.77v4.66c0,.81-.23,1.22-.68,1.22-.36,0-.72-.88-1.08-2.64-1.62-8.11-5.34-12.16-11.15-12.16-4.59,0-7.93,2.97-10,8.92-1.44,4.05-2.16,8.92-2.16,14.6,0,8.42,1.71,14.6,5.14,18.52,1.8,2.07,4.17,3.11,7.09,3.11,6.35,0,10.52-4.23,12.5-12.7.31-1.4.68-2.09,1.08-2.09.45,0,.65.29.61.88Z"/><path d="m86.67,112.08l-.07,1.15c0,.23-.11,1.65-.34,4.26-.18,1.98-.27,3.51-.27,4.59,0,1.35.02,2.48.07,3.38.04.32.07.7.07,1.15,0,.5-.11.74-.34.74s-.47-.23-.74-.68c-.99-1.62-2.05-2.68-3.18-3.18-3.38,2.88-7.01,4.33-10.88,4.33-5.9,0-11.11-2.21-15.61-6.62-4.78-4.68-7.16-10.59-7.16-17.7s2.15-12.65,6.45-17.27c4.3-4.62,9.67-6.93,16.12-6.93,2.97,0,5.63.68,7.97,2.03,1.35.77,2.34,1.15,2.97,1.15.95,0,1.83-.43,2.64-1.28.58-.63.95-.95,1.08-.95.18,0,.27.16.27.47,0,.13-.02.34-.07.61-.27,1.53-.41,3.42-.41,5.68,0,.23.02,1.15.07,2.77v4.66c0,.81-.23,1.22-.68,1.22-.36,0-.72-.88-1.08-2.64-1.62-8.11-5.34-12.16-11.15-12.16-4.6,0-7.93,2.97-10,8.92-1.44,4.05-2.16,8.92-2.16,14.6,0,8.42,1.71,14.6,5.14,18.52,1.8,2.07,4.17,3.11,7.1,3.11,6.35,0,10.52-4.23,12.5-12.7.31-1.4.68-2.09,1.08-2.09.45,0,.65.29.61.88Z"/><rect class="cls-1" x="1" y="1" width="150" height="150"/></g></svg>